<?xml version="1.0" encoding="UTF-8" standalone="no"?>
<svg
   xmlns:dc="http://purl.org/dc/elements/1.1/"
   xmlns:cc="http://creativecommons.org/ns#"
   xmlns:rdf="http://www.w3.org/1999/02/22-rdf-syntax-ns#"
   xmlns:svg="http://www.w3.org/2000/svg"
   xmlns="http://www.w3.org/2000/svg"
   id="svg8"
   version="1.1"
   viewBox="0 0 1189 841"
   height="841mm"
   width="1189mm">
  <defs
     id="defs2" />
  <metadata
     id="metadata5">
    <rdf:RDF>
      <cc:Work
         rdf:about="">
        <dc:format>image/svg+xml</dc:format>
        <dc:type
           rdf:resource="http://purl.org/dc/dcmitype/StillImage" />
        <dc:title></dc:title>
      </cc:Work>
    </rdf:RDF>
  </metadata>
  <g
     id="layer1">
    <path
       transform="scale(0.26458333)"
       id="path1009"
       d=""
       style="fill:#a0a0a0;stroke:none;stroke-width:2.85714" />
    <path
       transform="scale(0.26458333)"
       id="path1045"
       d=""
       style="fill:#a0a0a0;stroke:none;stroke-width:1.42857" />
    <g
       id="g1866"
       style="opacity:1;stroke:#000000;stroke-width:1.4;stroke-miterlimit:4;stroke-dasharray:none;stroke-opacity:1"
       transform="translate(-21.73471,-91.76697)">
      <path
         style="mix-blend-mode:normal;fill:none;fill-rule:evenodd;stroke:#000000;stroke-width:1.4;stroke-linecap:round;stroke-linejoin:round;stroke-miterlimit:4;stroke-dasharray:none;stroke-dashoffset:0;stroke-opacity:1;paint-order:markers fill stroke"
         d="M 709.08333,418.04167 C 704.54762,332.61905 626.68451,315.98809 626.68451,315.98809 503.46427,303.1369 494.39284,410.48215 494.39284,410.48215 c 0,0 -15.11903,47.62499 43.84526,96.7619"
         id="path847" />
      <path
         style="mix-blend-mode:normal;fill:none;fill-rule:evenodd;stroke:#000000;stroke-width:1.4;stroke-linecap:round;stroke-linejoin:round;stroke-miterlimit:4;stroke-dasharray:none;stroke-dashoffset:0;stroke-opacity:1;paint-order:markers fill stroke"
         d="m 668.2619,502.70833 c 0,0 48.38094,-44.60119 40.82142,-84.66667"
         id="path849" />
      <path
         style="mix-blend-mode:normal;fill:none;fill-rule:evenodd;stroke:#000000;stroke-width:1.4;stroke-linecap:round;stroke-linejoin:round;stroke-miterlimit:4;stroke-dasharray:none;stroke-dashoffset:0;stroke-opacity:1;paint-order:markers fill stroke"
         d="m 486.16327,410.92688 c 0,0 9.88896,-108.37777 118.93494,-104.63601 0,0 99.83543,-2.37055 109.84778,112.52048 0,0 6.1472,57.19568 -39.02135,89.53529"
         id="path851" />
      <path
         style="mix-blend-mode:normal;fill:none;fill-rule:evenodd;stroke:#000000;stroke-width:1.4;stroke-linecap:round;stroke-linejoin:round;stroke-miterlimit:4;stroke-dasharray:none;stroke-dashoffset:0;stroke-opacity:1;paint-order:markers fill stroke"
         d="m 486.16327,410.92688 c 0,0 -1.21984,80.82013 46.02721,100.85287"
         id="path855" />
      <path
         style="mix-blend-mode:normal;fill:none;fill-rule:evenodd;stroke:#000000;stroke-width:1.4;stroke-linecap:round;stroke-linejoin:round;stroke-miterlimit:4;stroke-dasharray:none;stroke-dashoffset:0;stroke-opacity:1;paint-order:markers fill stroke"
         d="m 551.46726,504.97619 c -52.91666,-31.75 -42.71133,-78.61904 -42.71133,-78.61904 0,0 15.11906,-77.10715 107.34525,-74.8393 0,0 67.27977,9.07144 74.8393,80.13096 0,0 7.55952,47.625 -33.63988,69.16964"
         id="path857" />
      <path
         style="mix-blend-mode:normal;fill:none;fill-rule:evenodd;stroke:#000000;stroke-width:1.4;stroke-linecap:round;stroke-linejoin:round;stroke-miterlimit:4;stroke-dasharray:none;stroke-dashoffset:0;stroke-opacity:1;paint-order:markers fill stroke"
         d="m 514.42558,407.08034 -1.88986,-6.42559 c 0,0 10.58333,-26.45832 26.8363,-36.66368 0,0 3.40179,-9.07143 -3.59077,-11.1503 0,0 -6.61458,-7.9375 -0.94494,-10.39434 0,0 3.02381,10.58333 17.76488,11.90625 0,0 -18.14286,-13.04018 -1.70089,-26.45833 0,0 3.96875,18.89881 13.98512,19.65476"
         id="path859" />
      <path
         style="mix-blend-mode:normal;fill:none;fill-rule:evenodd;stroke:#000000;stroke-width:1.4;stroke-linecap:round;stroke-linejoin:round;stroke-miterlimit:4;stroke-dasharray:none;stroke-dashoffset:0;stroke-opacity:1;paint-order:markers fill stroke"
         d="m 564.88541,347.5491 c 0,0 -2.55135,-3.0238 -2.55135,-3.0238 0,0 -8.31546,-13.51265 1.41743,-14.45759 0,0 6.23661,9.35491 30.89955,11.90625 2.36235,0 12.28423,0.37798 12.56771,0 0,0 40.44345,2.92931 62.93304,28.6317 0,0 21.35565,17.95386 25.51339,55.94047 0,0 0.18899,21.92262 -4.34673,29.10417"
         id="path867" />
      <path
         style="mix-blend-mode:normal;fill:none;fill-rule:evenodd;stroke:#000000;stroke-width:1.4;stroke-linecap:round;stroke-linejoin:round;stroke-miterlimit:4;stroke-dasharray:none;stroke-dashoffset:0;stroke-opacity:1;paint-order:markers fill stroke"
         d="m 514.42558,407.08034 c 0,0 23.58799,57.70139 86.66359,75.07388 0,0 69.81857,-4.01434 86.8275,-68.27029"
         id="path869" />
      <path
         style="mix-blend-mode:normal;fill:none;fill-rule:evenodd;stroke:#000000;stroke-width:1.4;stroke-linecap:round;stroke-linejoin:round;stroke-miterlimit:4;stroke-dasharray:none;stroke-dashoffset:0;stroke-opacity:1;paint-order:markers fill stroke"
         d="m 512.53572,400.65475 c -6.23443,-2.3877 -7.66358,10.94031 -7.66358,10.94031 0,0 1.06908,16.03618 2.93996,16.57072"
         id="path873" />
      <path
         style="mix-blend-mode:normal;fill:none;fill-rule:evenodd;stroke:#000000;stroke-width:1.4;stroke-linecap:round;stroke-linejoin:round;stroke-miterlimit:4;stroke-dasharray:none;stroke-dashoffset:0;stroke-opacity:1;paint-order:markers fill stroke"
         d="m 507.81209,428.16578 c 0,0 35.54685,62.27379 93.27708,53.98844"
         id="path875" />
      <path
         style="mix-blend-mode:normal;fill:none;fill-rule:evenodd;stroke:#000000;stroke-width:1.4;stroke-linecap:round;stroke-linejoin:round;stroke-miterlimit:4;stroke-dasharray:none;stroke-dashoffset:0;stroke-opacity:1;paint-order:markers fill stroke"
         d="m 616.10118,351.51785 c 0,0 -26.08035,-19.65476 1.5119,-28.72619 0,0 50.64883,-3.77976 73.70537,57.07441 0,0 -13.22916,-0.75595 -11.33928,1.51191"
         id="path877" />
      <path
         style="mix-blend-mode:normal;fill:none;fill-rule:evenodd;stroke:#000000;stroke-width:1.4;stroke-linecap:round;stroke-linejoin:round;stroke-miterlimit:4;stroke-dasharray:none;stroke-dashoffset:0;stroke-opacity:1;paint-order:markers fill stroke"
         d="m 657.3006,500.81845 c -3.77976,-12.09524 -11.71727,-8.31547 -11.71727,-8.31547 -35.15178,-3.77977 -72.9494,2.26785 -74.83928,1.51191 -21.92263,-3.4018 -19.2768,10.96129 -19.2768,10.96129 0,0 -1.13392,38.17561 1.13394,39.68751"
         id="path879" />
      <path
         style="mix-blend-mode:normal;fill:none;fill-rule:evenodd;stroke:#000000;stroke-width:1.4;stroke-linecap:round;stroke-linejoin:round;stroke-miterlimit:4;stroke-dasharray:none;stroke-dashoffset:0;stroke-opacity:1;paint-order:markers fill stroke"
         d="m 552.60118,544.66368 c 0,0 -3.40178,6.04763 7.9375,6.04763"
         id="path881" />
      <path
         style="mix-blend-mode:normal;fill:none;fill-rule:evenodd;stroke:#000000;stroke-width:1.4;stroke-linecap:round;stroke-linejoin:round;stroke-miterlimit:4;stroke-dasharray:none;stroke-dashoffset:0;stroke-opacity:1;paint-order:markers fill stroke"
         d="m 648.60714,548.44343 c 0,0 13.22917,0.75597 10.20535,-11.33927"
         id="path883" />
      <path
         style="mix-blend-mode:normal;fill:none;fill-rule:evenodd;stroke:#000000;stroke-width:1.4;stroke-linecap:round;stroke-linejoin:round;stroke-miterlimit:4;stroke-dasharray:none;stroke-dashoffset:0;stroke-opacity:1;paint-order:markers fill stroke"
         d="m 560.53868,550.71131 88.06846,-2.26788"
         id="path885" />
      <path
         style="mix-blend-mode:normal;fill:none;fill-rule:evenodd;stroke:#000000;stroke-width:1.4;stroke-linecap:round;stroke-linejoin:round;stroke-miterlimit:4;stroke-dasharray:none;stroke-dashoffset:0;stroke-opacity:1;paint-order:markers fill stroke"
         d="m 658.81249,537.10416 c 0,0 -1.51191,-36.28573 -1.51191,-36.28573"
         id="path887" />
      <path
         style="mix-blend-mode:normal;fill:none;fill-rule:evenodd;stroke:#000000;stroke-width:1.4;stroke-linecap:round;stroke-linejoin:round;stroke-miterlimit:4;stroke-dasharray:none;stroke-dashoffset:0;stroke-opacity:1;paint-order:markers fill stroke"
         d="m 544.16076,524.38281 c 0,0 -10.15625,-1.06908 -0.26729,-4.81087 0,0 6.14722,2e-5 6.94903,2.40545"
         id="path889" />
      <path
         style="mix-blend-mode:normal;fill:none;fill-rule:evenodd;stroke:#000000;stroke-width:1.4;stroke-linecap:round;stroke-linejoin:round;stroke-miterlimit:4;stroke-dasharray:none;stroke-dashoffset:0;stroke-opacity:1;paint-order:markers fill stroke"
         d="m 544.16076,524.38281 c 0,0 -18.59518,-0.35007 -11.97028,-12.60306 0,0 13.30663,-5.57126 18.65202,-1.02768"
         id="path891" />
      <path
         style="mix-blend-mode:normal;fill:none;fill-rule:evenodd;stroke:#000000;stroke-width:1.4;stroke-linecap:round;stroke-linejoin:round;stroke-miterlimit:4;stroke-dasharray:none;stroke-dashoffset:0;stroke-opacity:1;paint-order:markers fill stroke"
         d="m 532.19048,511.77975 c 0,0 -0.41095,-7.76859 19.27677,-6.80357"
         id="path893" />
      <path
         style="mix-blend-mode:normal;fill:none;fill-rule:evenodd;stroke:#000000;stroke-width:1.4;stroke-linecap:round;stroke-linejoin:round;stroke-miterlimit:4;stroke-dasharray:none;stroke-dashoffset:0;stroke-opacity:1;paint-order:markers fill stroke"
         d="m 658.55212,507.01029 c 0,0 17.90705,-1.60361 16.83797,6.94899"
         id="path895" />
      <path
         style="mix-blend-mode:normal;fill:none;fill-rule:evenodd;stroke:#000000;stroke-width:1.4;stroke-linecap:round;stroke-linejoin:round;stroke-miterlimit:4;stroke-dasharray:none;stroke-dashoffset:0;stroke-opacity:1;paint-order:markers fill stroke"
         d="m 658.55212,521.84373 c 0,0 7.61716,-8.68624 14.03164,-3.74176 10e-6,-0.13363 2.67269,-1.20275 2.80633,-4.14269"
         id="path897" />
      <path
         style="mix-blend-mode:normal;fill:none;fill-rule:evenodd;stroke:#000000;stroke-width:1.4;stroke-linecap:round;stroke-linejoin:round;stroke-miterlimit:4;stroke-dasharray:none;stroke-dashoffset:0;stroke-opacity:1;paint-order:markers fill stroke"
         d="m 657.48304,503.93668 c 0,0 15.50162,-3.07358 18.44159,4.40994 0,0 0.20046,1.60364 -1.13589,2.00454"
         id="path899" />
      <path
         style="mix-blend-mode:normal;fill:none;fill-rule:evenodd;stroke:#000000;stroke-width:1.4;stroke-linecap:round;stroke-linejoin:round;stroke-miterlimit:4;stroke-dasharray:none;stroke-dashoffset:0;stroke-opacity:1;paint-order:markers fill stroke"
         d="m 544.16076,524.38281 c 0,0 6.68173,-2.40543 6.68173,-2.40543"
         id="path901" />
      <path
         style="mix-blend-mode:normal;fill:none;fill-rule:evenodd;stroke:#000000;stroke-width:1.4;stroke-linecap:round;stroke-linejoin:round;stroke-miterlimit:4;stroke-dasharray:none;stroke-dashoffset:0;stroke-opacity:1;paint-order:markers fill stroke"
         d="m 534.08034,639.15773 -4.5357,1.13393 c 0,0 -17.57589,-37.79761 -9.82738,-64.44493 0.94494,-3.02381 3.40179,-35.71875 27.59226,-45.35715 0,0 1.13393,-3.77976 -4.6302,-4.53571 0,0 -23.24099,15.13329 -27.65094,48.14108 0,0 -4.67722,29.66691 4.81085,49.17759 0,0 0.40091,2.53906 6.5481,17.37252 l 2.80633,-1.46998"
         id="path903" />
      <path
         style="mix-blend-mode:normal;fill:none;fill-rule:evenodd;stroke:#000000;stroke-width:1.4;stroke-linecap:round;stroke-linejoin:round;stroke-miterlimit:4;stroke-dasharray:none;stroke-dashoffset:0;stroke-opacity:1;paint-order:markers fill stroke"
         d="m 534.08034,639.15773 c 0,0 2.59686,7.63453 8.61042,10.30722"
         id="path905" />
      <path
         style="mix-blend-mode:normal;fill:none;fill-rule:evenodd;stroke:#000000;stroke-width:1.4;stroke-linecap:round;stroke-linejoin:round;stroke-miterlimit:4;stroke-dasharray:none;stroke-dashoffset:0;stroke-opacity:1;paint-order:markers fill stroke"
         d="m 529.54464,640.29166 c 0,0 5.39533,12.6478 9.27071,10.91054 l 3.87541,-1.73725"
         id="path907" />
      <path
         style="mix-blend-mode:normal;fill:none;fill-rule:evenodd;stroke:#000000;stroke-width:1.4;stroke-linecap:round;stroke-linejoin:round;stroke-miterlimit:4;stroke-dasharray:none;stroke-dashoffset:0;stroke-opacity:1;paint-order:markers fill stroke"
         d="m 548.43707,648.93041 c -0.80181,0 -5.87993,-18.70886 -5.87993,-18.70886 -3.20723,-3.47451 -4.54358,-58.79932 -4.54358,-58.79932 -11.75986,5.87994 4.6772,78.04272 4.6772,78.04272 0,0 3.60815,1.60361 5.74631,-0.53454 z"
         id="path913" />
      <path
         style="mix-blend-mode:normal;fill:none;fill-rule:evenodd;stroke:#000000;stroke-width:1.4;stroke-linecap:round;stroke-linejoin:round;stroke-miterlimit:4;stroke-dasharray:none;stroke-dashoffset:0;stroke-opacity:1;paint-order:markers fill stroke"
         d="m 539.61717,601.35642 c 0,0 4.54359,4.27633 12.2944,0.53454"
         id="path915" />
      <path
         style="mix-blend-mode:normal;fill:none;fill-rule:evenodd;stroke:#000000;stroke-width:1.4;stroke-linecap:round;stroke-linejoin:round;stroke-miterlimit:4;stroke-dasharray:none;stroke-dashoffset:0;stroke-opacity:1;paint-order:markers fill stroke"
         d="m 540.95353,609.6418 c 0,0 4.54356,4.81084 10.95804,3.20722"
         id="path917" />
      <path
         style="mix-blend-mode:normal;fill:none;fill-rule:evenodd;stroke:#000000;stroke-width:1.4;stroke-linecap:round;stroke-linejoin:round;stroke-miterlimit:4;stroke-dasharray:none;stroke-dashoffset:0;stroke-opacity:1;paint-order:markers fill stroke"
         d="m 552.60118,544.66368 c 0,0 -5.66963,1.5119 -3.21279,7.7485 0,0 2.52318,49.47878 2.52318,49.47878 0,0 0.87861,29.89624 3.52444,30.84118 0,0 80.50893,3.96875 100.16369,-3.21279"
         id="path919" />
      <path
         style="mix-blend-mode:normal;fill:none;fill-rule:evenodd;stroke:#000000;stroke-width:1.4;stroke-linecap:round;stroke-linejoin:round;stroke-miterlimit:4;stroke-dasharray:none;stroke-dashoffset:0;stroke-opacity:1;paint-order:markers fill stroke"
         d="m 658.81937,544.16076 c 0,0 4.27633,2.93997 0.53454,6.94899"
         id="path923" />
      <path
         style="mix-blend-mode:normal;fill:none;fill-rule:evenodd;stroke:#000000;stroke-width:1.4;stroke-linecap:round;stroke-linejoin:round;stroke-miterlimit:4;stroke-dasharray:none;stroke-dashoffset:0;stroke-opacity:1;paint-order:markers fill stroke"
         d="m 659.35391,551.10975 c 0,0 4.51868,60.60215 -3.75423,78.40958"
         id="path925" />
      <path
         style="mix-blend-mode:normal;fill:none;fill-rule:evenodd;stroke:#000000;stroke-width:1.4;stroke-linecap:round;stroke-linejoin:round;stroke-miterlimit:4;stroke-dasharray:none;stroke-dashoffset:0;stroke-opacity:1;paint-order:markers fill stroke"
         d="m 658.81937,544.16076 c 0,0 6.41448,-23.92064 15.36801,-22.71792 0,0 2.93996,-3.07361 -1.60362,-3.34087"
         id="path927" />
      <path
         style="mix-blend-mode:normal;fill:none;fill-rule:evenodd;stroke:#000000;stroke-width:1.4;stroke-linecap:round;stroke-linejoin:round;stroke-miterlimit:4;stroke-dasharray:none;stroke-dashoffset:0;stroke-opacity:1;paint-order:markers fill stroke"
         d="m 565.80957,569.28408 c 0,0 -0.80179,-13.36347 9.35445,-12.02711"
         id="path929" />
      <path
         style="mix-blend-mode:normal;fill:none;fill-rule:evenodd;stroke:#000000;stroke-width:1.4;stroke-linecap:round;stroke-linejoin:round;stroke-miterlimit:4;stroke-dasharray:none;stroke-dashoffset:0;stroke-opacity:1;paint-order:markers fill stroke"
         d="m 575.16402,557.25697 c 0,0 38.21954,-6.14722 55.05752,-2.67272 0,0 13.63075,1.87091 12.2944,11.49261"
         id="path931" />
      <path
         style="mix-blend-mode:normal;fill:none;fill-rule:evenodd;stroke:#000000;stroke-width:1.4;stroke-linecap:round;stroke-linejoin:round;stroke-miterlimit:4;stroke-dasharray:none;stroke-dashoffset:0;stroke-opacity:1;paint-order:markers fill stroke"
         d="m 565.80957,569.28408 c 0,0 -6.14719,24.58881 1.06908,32.60688 0,0 0.53456,11.49261 12.56169,7.75083 0,0 53.98844,-0.26727 55.85933,-1.60361"
         id="path933" />
      <path
         style="mix-blend-mode:normal;fill:none;fill-rule:evenodd;stroke:#000000;stroke-width:1.4;stroke-linecap:round;stroke-linejoin:round;stroke-miterlimit:4;stroke-dasharray:none;stroke-dashoffset:0;stroke-opacity:1;paint-order:markers fill stroke"
         d="m 642.51593,566.07685 c 0,0 2.93997,31.27053 0.26728,35.27957"
         id="path935" />
      <path
         style="mix-blend-mode:normal;fill:none;fill-rule:evenodd;stroke:#000000;stroke-width:1.4;stroke-linecap:round;stroke-linejoin:round;stroke-miterlimit:4;stroke-dasharray:none;stroke-dashoffset:0;stroke-opacity:1;paint-order:markers fill stroke"
         d="m 635.29966,608.03818 c 0,0 7.21627,-5e-5 7.48355,-6.68176"
         id="path937" />
      <path
         style="mix-blend-mode:normal;fill:none;fill-rule:evenodd;stroke:#000000;stroke-width:1.4;stroke-linecap:round;stroke-linejoin:round;stroke-miterlimit:4;stroke-dasharray:none;stroke-dashoffset:0;stroke-opacity:1;paint-order:markers fill stroke"
         d="m 660.69027,590.93292 c 0,0 8.01809,14.16529 17.63979,6.41446 0,0 0.26727,16.83801 -17.63979,10.42353"
         id="path939" />
      <path
         style="mix-blend-mode:normal;fill:none;fill-rule:evenodd;stroke:#000000;stroke-width:1.4;stroke-linecap:round;stroke-linejoin:round;stroke-miterlimit:4;stroke-dasharray:none;stroke-dashoffset:0;stroke-opacity:1;paint-order:markers fill stroke"
         d="m 674.18738,521.44284 c 0,0 36.21502,12.82893 53.32026,47.84124"
         id="path941" />
      <path
         style="mix-blend-mode:normal;fill:none;fill-rule:evenodd;stroke:#000000;stroke-width:1.4;stroke-linecap:round;stroke-linejoin:round;stroke-miterlimit:4;stroke-dasharray:none;stroke-dashoffset:0;stroke-opacity:1;paint-order:markers fill stroke"
         d="m 668.70836,525.45188 c 0,0 43.96573,21.85763 54.92705,44.15822"
         id="path943" />
      <path
         style="mix-blend-mode:normal;fill:none;fill-rule:evenodd;stroke:#000000;stroke-width:1.4;stroke-linecap:round;stroke-linejoin:round;stroke-miterlimit:4;stroke-dasharray:none;stroke-dashoffset:0;stroke-opacity:1;paint-order:markers fill stroke"
         d="m 708.13839,583.78423 c 0,0 15.49702,-14.17413 15.49702,-14.17413"
         id="path945" />
      <path
         style="mix-blend-mode:normal;fill:none;fill-rule:evenodd;stroke:#000000;stroke-width:1.4;stroke-linecap:round;stroke-linejoin:round;stroke-miterlimit:4;stroke-dasharray:none;stroke-dashoffset:0;stroke-opacity:1;paint-order:markers fill stroke"
         d="m 679.60117,573.0119 c 0,0 -2.64583,-15.68601 9.8274,-4.34673 4.15774,3.96876 9.26041,5.85865 18.70982,15.11906"
         id="path947" />
      <path
         style="mix-blend-mode:normal;fill:none;fill-rule:evenodd;stroke:#000000;stroke-width:1.4;stroke-linecap:round;stroke-linejoin:round;stroke-miterlimit:4;stroke-dasharray:none;stroke-dashoffset:0;stroke-opacity:1;paint-order:markers fill stroke"
         d="m 674.87648,599.28124 c -0.94493,-0.94493 4.72469,-26.26934 4.72469,-26.26934 0,0 -1.27111,24.33548 -1.27111,24.33548"
         id="path949" />
      <path
         style="mix-blend-mode:normal;fill:none;fill-rule:evenodd;stroke:#000000;stroke-width:1.4;stroke-linecap:round;stroke-linejoin:round;stroke-miterlimit:4;stroke-dasharray:none;stroke-dashoffset:0;stroke-opacity:1;paint-order:markers fill stroke"
         d="m 674.87648,599.28124 c 0,0 -20.78868,64.82292 -23.6235,65.2009 0,0 -8.69346,18.52084 -21.16667,34.77381 0,0 0.75595,5.66965 9.4494,6.04762 0,0 -0.18898,-2.07887 -1.32291,-2.83482 l -4.34673,-3.40178"
         id="path951" />
      <path
         style="mix-blend-mode:normal;fill:none;fill-rule:evenodd;stroke:#000000;stroke-width:1.4;stroke-linecap:round;stroke-linejoin:round;stroke-miterlimit:4;stroke-dasharray:none;stroke-dashoffset:0;stroke-opacity:1;paint-order:markers fill stroke"
         d="m 633.86607,699.06697 c 0,0 30.23809,-41.19941 29.8601,-50.27084 0,0 14.55211,-36.66368 12.85121,-43.08928"
         id="path953" />
      <path
         style="mix-blend-mode:normal;fill:none;fill-rule:evenodd;stroke:#000000;stroke-width:1.4;stroke-linecap:round;stroke-linejoin:round;stroke-miterlimit:4;stroke-dasharray:none;stroke-dashoffset:0;stroke-opacity:1;paint-order:markers fill stroke"
         d="m 546.55357,642.7485 c 0,0 31.75,44.79017 44.2232,50.83781 0,0 2.64585,1.51191 1.51192,5.10268 0,0 3.96875,4.91369 -0.37798,6.04762"
         id="path955" />
      <path
         style="mix-blend-mode:normal;fill:none;fill-rule:evenodd;stroke:#000000;stroke-width:1.4;stroke-linecap:round;stroke-linejoin:round;stroke-miterlimit:4;stroke-dasharray:none;stroke-dashoffset:0;stroke-opacity:1;paint-order:markers fill stroke"
         d="m 548.43706,648.93041 c 0,0 17.77129,33.3166 30.0555,38.98625 0,0 5.66964,7.74852 9.73289,9.26042 0,0 3.49628,1.51191 0.75595,6.80358 0,0 -5.10268,2.74032 -4.91369,3.1183 0,0 6.70907,-0.18899 7.843,-2.36235"
         id="path957" />
      <path
         style="mix-blend-mode:normal;fill:none;fill-rule:evenodd;stroke:#000000;stroke-width:1.4;stroke-linecap:round;stroke-linejoin:round;stroke-miterlimit:4;stroke-dasharray:none;stroke-dashoffset:0;stroke-opacity:1;paint-order:markers fill stroke"
         d="m 727.50764,569.28408 c 0,0 3.49829,0.704 5.57718,3.53883"
         id="path959" />
      <path
         style="mix-blend-mode:normal;fill:none;fill-rule:evenodd;stroke:#000000;stroke-width:1.4;stroke-linecap:round;stroke-linejoin:round;stroke-miterlimit:4;stroke-dasharray:none;stroke-dashoffset:0;stroke-opacity:1;paint-order:markers fill stroke"
         d="m 721.2268,572.22405 10.15624,3.60815"
         id="path961" />
      <path
         style="mix-blend-mode:normal;fill:none;fill-rule:evenodd;stroke:#000000;stroke-width:1.4;stroke-linecap:round;stroke-linejoin:round;stroke-miterlimit:4;stroke-dasharray:none;stroke-dashoffset:0;stroke-opacity:1;paint-order:markers fill stroke"
         d="m 733.08482,572.82291 c 0,0 4.7127,6.08288 0.16912,14.63551"
         id="path963" />
      <path
         style="mix-blend-mode:normal;fill:none;fill-rule:evenodd;stroke:#000000;stroke-width:1.4;stroke-linecap:round;stroke-linejoin:round;stroke-miterlimit:4;stroke-dasharray:none;stroke-dashoffset:0;stroke-opacity:1;paint-order:markers fill stroke"
         d="m 711.47148,581.31122 c 0,0 9.88896,10.55714 13.09621,9.35442 0,0 6.81535,2.53907 8.68625,-3.20722"
         id="path965" />
      <path
         style="mix-blend-mode:normal;fill:none;fill-rule:evenodd;stroke:#000000;stroke-width:1.4;stroke-linecap:round;stroke-linejoin:round;stroke-miterlimit:4;stroke-dasharray:none;stroke-dashoffset:0;stroke-opacity:1;paint-order:markers fill stroke"
         d="m 731.38304,575.8322 c 0,0 3.74179,2.53905 2.80633,7.08263"
         id="path967" />
      <path
         style="mix-blend-mode:normal;fill:none;fill-rule:evenodd;stroke:#000000;stroke-width:1.4;stroke-linecap:round;stroke-linejoin:round;stroke-miterlimit:4;stroke-dasharray:none;stroke-dashoffset:0;stroke-opacity:1;paint-order:markers fill stroke"
         d="m 725.97086,590.73248 c 0,0 7.28302,-1.06911 8.21851,-7.81765"
         id="path969" />
      <path
         style="mix-blend-mode:normal;fill:none;fill-rule:evenodd;stroke:#000000;stroke-width:1.4;stroke-linecap:round;stroke-linejoin:round;stroke-miterlimit:4;stroke-dasharray:none;stroke-dashoffset:0;stroke-opacity:1;paint-order:markers fill stroke"
         d="m 697.30619,703.18611 c 0,0 -0.80182,6.14722 4.54358,0"
         id="path971" />
      <path
         style="mix-blend-mode:normal;fill:none;fill-rule:evenodd;stroke:#000000;stroke-width:1.4;stroke-linecap:round;stroke-linejoin:round;stroke-miterlimit:4;stroke-dasharray:none;stroke-dashoffset:0;stroke-opacity:1;paint-order:markers fill stroke"
         d="M 697.30619,703.18611 721.74552,590.20982"
         id="path973" />
      <path
         style="mix-blend-mode:normal;fill:none;fill-rule:evenodd;stroke:#000000;stroke-width:1.4;stroke-linecap:round;stroke-linejoin:round;stroke-miterlimit:4;stroke-dasharray:none;stroke-dashoffset:0;stroke-opacity:1;paint-order:markers fill stroke"
         d="m 701.84975,703.18611 24.12111,-112.45363 v 0"
         id="path975" />
      <path
         style="mix-blend-mode:normal;fill:none;fill-rule:evenodd;stroke:#000000;stroke-width:1.4;stroke-linecap:round;stroke-linejoin:round;stroke-miterlimit:4;stroke-dasharray:none;stroke-dashoffset:0;stroke-opacity:1;paint-order:markers fill stroke"
         d="M 698.24163,706.12608 724.56769,590.66564"
         id="path977" />
      <path
         style="mix-blend-mode:normal;fill:none;fill-rule:evenodd;stroke:#000000;stroke-width:1.4;stroke-linecap:round;stroke-linejoin:round;stroke-miterlimit:4;stroke-dasharray:none;stroke-dashoffset:0;stroke-opacity:1;paint-order:markers fill stroke"
         d="m 726.43856,566.34411 7.6172,-35.01229"
         id="path979" />
      <path
         style="mix-blend-mode:normal;fill:none;fill-rule:evenodd;stroke:#000000;stroke-width:1.4;stroke-linecap:round;stroke-linejoin:round;stroke-miterlimit:4;stroke-dasharray:none;stroke-dashoffset:0;stroke-opacity:1;paint-order:markers fill stroke"
         d="m 727.50764,569.28408 8.31749,-36.71565"
         id="path981" />
      <path
         style="mix-blend-mode:normal;fill:none;fill-rule:evenodd;stroke:#000000;stroke-width:1.4;stroke-linecap:round;stroke-linejoin:round;stroke-miterlimit:4;stroke-dasharray:none;stroke-dashoffset:0;stroke-opacity:1;paint-order:markers fill stroke"
         d="m 730.15551,570.08259 8.31546,-37.23065"
         id="path983" />
      <path
         style="mix-blend-mode:normal;fill:none;fill-rule:evenodd;stroke:#000000;stroke-width:1.4;stroke-linecap:round;stroke-linejoin:round;stroke-miterlimit:4;stroke-dasharray:none;stroke-dashoffset:0;stroke-opacity:1;paint-order:markers fill stroke"
         d="m 734.05576,531.33182 c 0,0 23.65335,8.81989 41.29312,-2.93997 0,0 19.77796,-2.67269 27.79605,19.51068 0,0 13.09621,-36.08138 12.2944,-52.91936"
         id="path985" />
      <path
         style="mix-blend-mode:normal;fill:none;fill-rule:evenodd;stroke:#000000;stroke-width:1.4;stroke-linecap:round;stroke-linejoin:round;stroke-miterlimit:4;stroke-dasharray:none;stroke-dashoffset:0;stroke-opacity:1;paint-order:markers fill stroke"
         d="m 744.88015,477.0761 c 0,0 11.75988,10.4235 41.69405,1.33636 0,0 8.28538,0.8018 10.15626,2.67269 0,0 15.23437,1.60363 18.70887,13.89802"
         id="path987" />
      <path
         style="mix-blend-mode:normal;fill:none;fill-rule:evenodd;stroke:#000000;stroke-width:1.4;stroke-linecap:round;stroke-linejoin:round;stroke-miterlimit:4;stroke-dasharray:none;stroke-dashoffset:0;stroke-opacity:1;paint-order:markers fill stroke"
         d="m 814.90479,501.79854 c -0.4009,-3.47451 -11.75986,-12.2944 -11.75986,-12.2944 -9.88897,-10.42351 -30.20146,-4.94448 -30.20146,-4.94448 -23.78699,3.47448 -28.06332,-7.48356 -28.06332,-7.48356 l -10.82439,54.25572"
         id="path989" />
      <path
         style="mix-blend-mode:normal;fill:none;fill-rule:evenodd;stroke:#000000;stroke-width:1.4;stroke-linecap:round;stroke-linejoin:round;stroke-miterlimit:4;stroke-dasharray:none;stroke-dashoffset:0;stroke-opacity:1;paint-order:markers fill stroke"
         d="m 584.0677,707.09895 c 0,0 21.82813,-0.28348 24.85194,-4.06323 v -49.89286 c 0,0 6.4256,38.17559 7.55953,49.51488"
         id="path991" />
      <path
         style="mix-blend-mode:normal;fill:none;fill-rule:evenodd;stroke:#000000;stroke-width:1.4;stroke-linecap:round;stroke-linejoin:round;stroke-miterlimit:4;stroke-dasharray:none;stroke-dashoffset:0;stroke-opacity:1;paint-order:markers fill stroke"
         d="m 616.47916,702.65773 c 0,0 13.60712,4.5357 23.05653,2.64584"
         id="path993" />
      <path
         style="mix-blend-mode:normal;fill:none;fill-rule:evenodd;stroke:#000000;stroke-width:1.4;stroke-linecap:round;stroke-linejoin:round;stroke-miterlimit:4;stroke-dasharray:none;stroke-dashoffset:0;stroke-opacity:1;paint-order:markers fill stroke"
         d="m 598.33632,706.24849 c 0,0 5.66961,-5.10267 6.23659,-12.47319 0,0 -0.75595,-47.81399 3.2128,-48.56994 0,0 1.51191,-1.32292 2.26786,1.13393"
         id="path995" />
      <path
         style="mix-blend-mode:normal;fill:none;fill-rule:evenodd;stroke:#000000;stroke-width:1.4;stroke-linecap:round;stroke-linejoin:round;stroke-miterlimit:4;stroke-dasharray:none;stroke-dashoffset:0;stroke-opacity:1;paint-order:markers fill stroke"
         d="m 610.05357,646.33929 c 0,0 12.09524,43.46726 9.26041,49.89285 0,0 1.51191,7.74852 2.45685,8.12649"
         id="path997" />
      <path
         style="mix-blend-mode:normal;fill:none;fill-rule:evenodd;stroke:#000000;stroke-width:1.4;stroke-linecap:round;stroke-linejoin:round;stroke-miterlimit:4;stroke-dasharray:none;stroke-dashoffset:0;stroke-opacity:1;paint-order:markers fill stroke"
         d="m 599.84822,704.73659 v 0"
         id="path999" />
      <path
         style="mix-blend-mode:normal;fill:#a0a0a0;stroke:#000000;stroke-width:1.4;stroke-miterlimit:4;stroke-dasharray:none;stroke-dashoffset:0;stroke-opacity:1"
         d="m 692.65672,441.26803 c -0.12356,-42.34675 -23.72101,-74.80348 -64.02538,-88.06267 -8.91937,-2.93426 -19.82409,-3.7166 -31.91992,-2.29008 -36.00457,4.24625 -61.72517,20.31871 -78.97116,49.348 l -3.2257,5.42967 -0.714,-2.48955 c -0.62508,-2.17953 -0.31202,-3.30374 2.51415,-9.02858 5.88423,-11.91938 12.58223,-20.90426 21.03538,-28.21737 2.91515,-2.522 3.21281,-3.10311 3.21281,-6.27231 0,-3.11619 -0.36102,-3.85903 -3.34838,-6.88925 -3.3332,-3.38101 -5.0064,-7.37857 -3.6543,-8.73067 0.44247,-0.44246 1.51908,0.45792 2.85825,2.39035 1.18165,1.70511 3.53303,3.90671 5.2253,4.89244 3.2901,1.91646 10.02499,3.88922 10.76188,3.15232 0.24506,-0.24503 -1.07945,-2.14172 -2.94333,-4.21481 -4.11856,-4.58084 -5.6972,-9.25803 -4.4254,-13.11166 0.99894,-3.02676 4.41844,-7.90025 5.19544,-7.40458 0.29475,0.18804 1.44039,2.66663 2.5459,5.50802 3.07573,7.90532 7.45808,12.67097 11.6518,12.67097 1.17637,0 1.17742,-0.11753 0.0154,-1.7009 -2.27455,-3.09938 -4.9689,-9.22933 -4.97639,-11.32186 -0.005,-1.36449 0.62529,-2.476 1.86394,-3.28758 1.80834,-1.18489 1.97813,-1.13475 5.04449,1.48997 6.45311,5.52363 21.74298,9.52871 36.3769,9.52871 8.81263,0 19.44973,1.97524 30.54228,5.67155 13.7877,4.59441 23.83348,10.51613 33.60828,19.81121 14.87894,14.14867 24.08345,31.97315 27.42781,53.11372 1.04987,6.63647 0.58248,19.54128 -0.94538,26.1029 -0.56631,2.43215 -0.70929,1.24089 -0.7307,-6.08796 z"
         id="path1001" />
      <path
         style="mix-blend-mode:normal;fill:#a0a0a0;stroke:#000000;stroke-width:1.4;stroke-miterlimit:4;stroke-dasharray:none;stroke-dashoffset:0;stroke-opacity:1"
         d="m 526.65746,507.09234 c -6.72582,-4.05008 -11.35251,-8.26934 -16.37099,-14.92935 -12.82949,-17.02602 -20.95013,-43.67647 -22.3551,-73.36526 -0.38719,-8.18218 -0.2097,-10.27459 1.55134,-18.28702 2.79595,-12.72103 5.75212,-21.0757 11.77763,-33.28566 15.58917,-31.58953 40.22236,-50.63408 74.48177,-57.58373 9.82575,-1.99319 38.7722,-1.98398 47.97555,0.0153 15.54406,3.37664 30.28741,9.47238 42.33333,17.50298 8.00359,5.33575 20.66639,18.18204 26.32654,26.70808 13.96405,21.03429 22.1524,50.89628 21.07483,76.8574 -1.22391,29.48708 -13.20744,55.57856 -33.23084,72.35294 l -3.59437,3.01111 -3.33205,-1.37813 -3.33203,-1.37814 5.18091,-5.45417 c 20.52508,-21.60757 34.22308,-46.96624 35.89499,-66.45114 0.5888,-6.86231 -1.1094,-23.73484 -3.53262,-35.0983 -6.93737,-32.53205 -28.58269,-59.31334 -59.89944,-74.11217 -12.49066,-5.90251 -18.19582,-7.47115 -30.07847,-8.27013 -60.26623,-4.05228 -103.80554,23.76058 -120.34826,76.87831 -1.06426,3.41728 -2.83234,11.0713 -3.92909,17.00892 -3.5111,19.00878 -1.8215,34.71897 5.57395,51.82738 5.84136,13.51322 13.90999,24.79871 27.53389,38.51129 8.30334,8.3574 8.40801,8.5063 7.04141,10.01639 -0.76298,0.84306 -1.60967,1.53286 -1.88151,1.53286 -0.27186,0 -2.45948,-1.18338 -4.86137,-2.62972 z"
         id="path1005" />
      <path
         style="mix-blend-mode:normal;fill:#a0a0a0;stroke:#000000;stroke-width:1.4;stroke-miterlimit:4;stroke-dasharray:none;stroke-dashoffset:0;stroke-opacity:1"
         d="m 732.67035,576.361 c -0.48173,-0.58045 -2.90452,-1.79504 -5.38396,-2.6991 -4.00952,-1.46193 -4.41367,-1.79493 -3.65429,-3.01085 0.70178,-1.12376 0.36195,-2.10812 -1.90884,-5.52921 -7.4346,-11.20071 -27.37643,-26.91294 -47.82865,-37.68431 -5.45925,-2.8752 -5.46018,-2.87623 -3.65492,-4.05908 2.72116,-1.78297 3.99878,-1.50979 12.00644,2.56715 17.80794,9.06658 34.68923,24.81236 42.40843,39.55584 1.43144,2.73396 3.01299,4.5411 4.82703,5.51548 1.48394,0.79705 3.15806,2.41046 3.7203,3.58534 1.13501,2.37188 0.82598,3.39444 -0.53154,1.75874 z"
         id="path1007" />
      <path
         style="mix-blend-mode:normal;fill:#a0a0a0;stroke:#000000;stroke-width:1.4;stroke-miterlimit:4;stroke-dasharray:none;stroke-dashoffset:0;stroke-opacity:1"
         d="m 526.19981,638.71472 c 0,-0.15135 -2.05275,-5.67114 -4.56168,-12.26622 -2.56522,-6.74309 -5.04656,-14.77174 -5.66963,-18.34467 -1.30632,-7.49091 -1.45999,-25.43802 -0.28985,-33.85095 2.24507,-16.14147 10.00691,-31.57704 21.33071,-42.41919 4.88373,-4.67604 6.93489,-5.57671 8.69402,-3.81757 1.46881,1.46881 1.10403,1.99141 -2.75505,3.94697 -7.74076,3.92253 -14.89898,13.10812 -18.95906,24.32873 -1.28847,3.56087 -3.39283,11.63339 -4.67635,17.93888 -2.10339,10.33331 -2.29061,12.35972 -1.89749,20.53601 0.52731,10.96698 2.37762,19.94842 6.89433,33.46537 3.83317,11.47133 3.65768,10.75786 2.64599,10.75786 -0.41577,0 -0.75594,-0.12386 -0.75594,-0.27522 z"
         id="path1011" />
      <path
         style="mix-blend-mode:normal;fill:#a0a0a0;stroke:#000000;stroke-width:1.4;stroke-miterlimit:4;stroke-dasharray:none;stroke-dashoffset:0;stroke-opacity:1"
         d="m 633.81767,702.92705 c -1.30524,-0.79589 -2.52565,-1.90021 -2.71205,-2.45401 -0.18638,-0.5538 0.93652,-2.70782 2.49533,-4.78668 7.02461,-9.36824 19.762,-32.2018 23.43934,-42.01829 1.3109,-3.49946 5.34204,-14.96082 8.95807,-25.46967 4.82727,-14.02887 7.01387,-19.41465 8.2273,-20.26459 1.55657,-1.09025 1.65267,-1.05614 1.65217,0.58618 0,2.94571 -3.64109,15.22664 -8.35785,28.19683 -2.47105,6.79492 -4.49281,12.83803 -4.49281,13.42917 0,0.5911 -1.71471,4.44272 -3.8105,8.55911 -3.12039,6.12886 -9.00716,15.29233 -25.29366,39.3727 -0.58153,0.85984 -0.0583,1.71323 2.26787,3.69861 2.44044,2.08298 2.73212,2.58254 1.51188,2.58931 -0.83153,0.005 -2.57982,-0.64275 -3.88509,-1.43867 z"
         id="path1013" />
      <path
         style="mix-blend-mode:normal;fill:#a0a0a0;stroke:#000000;stroke-width:1.4;stroke-miterlimit:4;stroke-dasharray:none;stroke-dashoffset:0;stroke-opacity:1"
         d="m 588.94384,704.3798 c 1.83687,-1.83684 1.97503,-5.62922 0.25368,-6.96275 -1.92955,-1.49481 -11.17761,-10.15325 -17.59344,-16.47177 -5.49484,-5.41149 -13.57228,-16.49711 -18.89818,-25.93623 -1.36284,-2.41535 -2.31915,-4.5503 -2.12516,-4.74432 0.19402,-0.19402 2.33402,2.29246 4.75554,5.52551 12.73307,17.00024 26.98043,32.93424 33.41857,37.37483 2.34227,1.61551 3.21281,2.73163 3.21281,4.11921 0,1.04677 0.38597,2.62446 0.85772,3.50594 0.73242,1.36854 0.56063,1.85823 -1.17607,3.35209 -2.59882,2.23539 -4.9059,2.43792 -2.70547,0.23749 z"
         id="path1015" />
      <path
         style="mix-blend-mode:normal;fill:#98c0ca;fill-opacity:1;stroke:#000000;stroke-width:1.4;stroke-miterlimit:4;stroke-dasharray:none;stroke-dashoffset:0;stroke-opacity:1"
         d="M 673.47504,372.85414 C 659.82661,357.34871 639.1789,346.48555 616.04228,342.63766 l -8.52847,-1.4184 -0.97256,-3.90925 c -1.23071,-4.94699 0.86371,-8.48339 6.82551,-11.52488 4.99927,-2.55045 8.69558,-2.65636 18.70517,-0.53607 15.39467,3.26102 31.13114,13.03909 41.7993,25.97258 5.30023,6.42573 15.42703,24.04245 15.42703,26.83711 0,0.67988 -2.13077,1.16653 -5.10754,1.16653 -4.89866,0 -5.33697,-0.26062 -10.71568,-6.37114 z"
         id="path1019" />
      <path
         style="mix-blend-mode:normal;fill:#9cbb9f;fill-opacity:1;stroke:#000000;stroke-width:1.4;stroke-miterlimit:4;stroke-dasharray:none;stroke-dashoffset:0;stroke-opacity:1"
         d="m 657.76046,502.82541 c 0,-0.24086 2.62096,-2.16041 5.82437,-4.26564 12.9081,-8.48307 21.95531,-20.81239 25.98513,-35.41186 0.77092,-2.79297 2.0801,-6.88219 2.90925,-9.08717 1.89746,-5.04587 2.59292,-9.14884 3.21535,-18.96936 0.52909,-8.34829 0.0536,-13.46086 -2.08357,-22.40359 -2.22191,-9.2974 -6.93904,-20.70036 -11.54467,-27.90761 -2.41223,-3.77479 -2.04607,-4.13018 4.52729,-4.39418 2.95754,-0.11879 5.37736,-0.38708 5.37736,-0.59618 0,-0.56042 -3.95758,-9.58684 -5.78963,-13.20496 -1.9511,-3.85318 -7.5033,-12.36221 -10.41236,-15.95742 -12.25418,-15.14454 -29.18251,-25.03784 -47.49467,-27.75691 -7.45577,-1.10709 -9.97561,-1.06113 -13.46795,0.24551 -8.6078,3.22059 -12.40544,9.68574 -9.52048,16.20769 l 1.09874,2.4838 h -5.27667 c -13.60236,0 -28.65707,-4.34731 -34.86232,-10.0671 -2.62064,-2.41562 -4.28937,-2.5028 -6.32992,-0.33076 -1.7935,1.9091 -1.30135,6.56553 1.21161,11.46342 1.05685,2.05991 1.69775,3.74531 1.42417,3.74531 -1.02848,0 -5.34162,-4.5148 -6.8308,-7.15018 -1.39758,-2.47327 -4.3335,-9.91518 -4.3335,-10.98444 0,-1.08773 13.44522,-6.18951 21.8399,-8.28712 18.54763,-4.6346 45.1241,-5.37615 57.64061,-1.6083 20.46912,6.16177 41.73461,20.54669 54.47602,36.84992 11.65262,14.91012 19.28937,33.95028 21.5469,53.72119 0.28532,2.49896 0.80957,7.13337 1.16496,10.29866 1.45171,12.92956 -1.13194,25.07372 -8.42291,39.59088 -6.31732,12.57855 -16.36292,26.2002 -29.1107,39.47356 l -3.9416,4.10413 -4.40995,0.31832 c -2.42548,0.17508 -4.40996,0.12126 -4.40996,-0.11961 z"
         id="path1021" />
      <path
         style="mix-blend-mode:normal;fill:#151b27;fill-opacity:1;stroke:#000000;stroke-width:1.4;stroke-miterlimit:4;stroke-dasharray:none;stroke-dashoffset:0;stroke-opacity:1"
         d="m 570.12154,607.62469 c -1.40057,-1.40057 -2.19824,-2.76129 -2.45427,-4.18668 -0.20863,-1.16147 -0.68459,-2.47256 -1.05768,-2.91357 -0.37309,-0.44101 -1.1014,-2.00451 -1.61845,-3.47451 -1.21828,-3.46342 -1.22362,-14.15518 -0.0103,-20.57974 0.47196,-2.49899 1.08746,-6.44001 1.36781,-8.75789 0.6226,-5.14745 1.89225,-7.78455 4.32324,-8.97933 3.96878,-1.95056 38.18255,-5.05989 49.67087,-4.51405 8.85835,0.42087 11.62542,0.94858 15.86963,3.02651 5.21268,2.5521 5.57209,3.43636 6.3836,15.70541 1.29987,19.6525 0.75178,29.13948 -1.85097,32.03829 -2.53916,2.82794 -7.32222,3.34118 -35.36937,3.79526 -10.43686,0.16896 -22.17179,0.44402 -26.07763,0.61124 l -7.10152,0.304 z"
         id="path1023" />
      <path
         style="mix-blend-mode:normal;fill:#808080;fill-opacity:1;stroke:#000000;stroke-width:1.4;stroke-miterlimit:4;stroke-dasharray:none;stroke-dashoffset:0;stroke-opacity:1"
         d="m 565.01794,632.57268 c -4.70395,-0.20111 -8.83624,-0.39823 -9.18289,-0.43805 -1.45688,-0.16732 -2.46558,-9.65919 -3.64321,-34.28288 -1.15448,-24.13928 -2.40401,-45.92949 -2.74458,-47.86132 -0.20021,-1.13575 0.0273,-2.01094 0.75721,-2.91227 l 1.04344,-1.2886 0.40013,1.30865 c 0.66535,2.17604 1.8615,3.10185 4.74342,3.67136 1.95472,0.38629 16.23108,0.18598 49.51873,-0.69479 49.88867,-1.32001 49.08947,-1.25797 51.53221,-3.99955 1.3426,-1.5068 1.66621,-1.44648 2.45491,0.45762 0.55719,1.34514 0.5253,1.81052 -0.19981,2.91719 -0.77365,1.1807 -0.80169,2.46494 -0.2717,12.43118 0.33684,6.33413 0.47077,18.81627 0.31138,29.02152 -0.29757,19.05507 -0.96792,26.22838 -3.17174,33.94051 l -1.21039,4.23574 -2.37379,0.68543 c -3.52441,1.01764 -13.08531,2.20358 -22.74043,2.82077 -9.23309,0.59021 -51.31343,0.58214 -65.22289,-0.0124 z m 39.28861,-22.72147 c 10.43689,-0.17036 22.08157,-0.53168 25.8771,-0.80295 10.51488,-0.7515 12.29291,-1.96313 13.63316,-9.29016 0.9484,-5.18483 0.79383,-12.52233 -0.73091,-34.69542 -0.30208,-4.39282 -1.98282,-6.75785 -6.28447,-8.84301 -4.95485,-2.40181 -9.33825,-3.00638 -21.53681,-2.97045 -10.92611,0.0322 -18.63194,0.60735 -32.33963,2.41387 -4.26294,0.56182 -8.59271,1.0241 -9.6217,1.02733 -4.08369,0.0127 -7.10552,3.56949 -7.76965,9.14508 -0.18891,1.58613 -0.68175,4.8082 -1.09519,7.16018 -2.0324,11.56232 -1.8555,21.71629 0.46418,26.64275 0.71396,1.5163 1.70908,3.88826 2.21139,5.27106 0.52102,1.43428 1.73689,3.23728 2.83083,4.19777 l 1.91754,1.68362 6.73402,-0.31496 c 3.70372,-0.17322 15.27328,-0.45434 25.71014,-0.62471 z"
         id="path1025" />
      <path
         style="mix-blend-mode:normal;fill:#35414b;fill-opacity:1;stroke:#000000;stroke-width:1.4;stroke-miterlimit:4;stroke-dasharray:none;stroke-dashoffset:0;stroke-opacity:1"
         d="m 556.27256,549.78204 c -2.50608,-0.64524 -3.43207,-1.76268 -3.66736,-4.42563 -0.11152,-1.2622 -0.3279,-10.54854 -0.48083,-20.63631 -0.20878,-13.77056 -0.11914,-18.53285 0.35965,-19.10977 0.49495,-0.5964 0.48985,-0.94655 -0.0228,-1.56432 -1.11889,-1.34821 -0.1597,-4.3946 2.09296,-6.64729 2.67473,-2.67472 5.98348,-3.4903 12.53853,-3.09068 3.06022,0.18656 9.5495,-0.12229 17.43599,-0.82983 9.88343,-0.8867 16.7785,-1.13456 32.33962,-1.16245 10.87787,-0.0196 23.0799,0.0978 27.11561,0.26075 6.82535,0.27551 7.43413,0.38684 8.71961,1.59448 3.68215,3.45922 4.19002,6.29296 5.16956,28.8453 0.91374,21.03678 0.96658,20.14048 -1.31016,22.22696 -1.31472,1.20486 -2.74789,1.8874 -4.75234,2.26329 -1.57845,0.29602 -19.46738,0.92737 -39.75312,1.40301 -20.28576,0.47562 -40.73189,0.97057 -45.43584,1.09987 -4.70394,0.12931 -9.36098,0.027 -10.34899,-0.22738 z"
         id="path1027" />
      <path
         style="mix-blend-mode:normal;fill:#808080;fill-opacity:1;stroke:#000000;stroke-width:1.4;stroke-miterlimit:4;stroke-dasharray:none;stroke-dashoffset:0;stroke-opacity:1"
         d="m 673.54589,508.80419 c -1.6679,-1.23105 -4.96339,-1.95905 -10.43442,-2.30507 -4.15557,-0.26284 -5.10329,-0.48226 -5.2428,-1.21391 -0.38616,-2.02539 10.3333,-1.94479 14.35698,0.10792 2.2144,1.12972 2.86496,1.99419 2.55164,3.39077 -0.1569,0.69929 -0.30805,0.70178 -1.2314,0.0204 z"
         id="path1029" />
      <path
         style="mix-blend-mode:normal;fill:#35414b;fill-opacity:1;stroke:#000000;stroke-width:1.4;stroke-miterlimit:4;stroke-dasharray:none;stroke-dashoffset:0;stroke-opacity:1"
         d="m 658.6281,519.12628 c -0.17518,-0.65347 -0.32178,-3.53341 -0.3258,-6.39988 l -0.007,-5.21176 h 4.1793 c 7.41551,0 12.39142,2.32762 12.39142,5.79641 0,0.86278 -0.45284,2.12792 -1.00629,2.81141 -0.89411,1.10419 -1.16504,1.17039 -2.43057,0.59376 -2.97238,-1.3543 -6.00628,-0.72809 -10.26898,2.11963 l -2.21327,1.47857 z"
         id="path1031" />
      <path
         style="mix-blend-mode:normal;fill:#35414b;fill-opacity:1;stroke:#000000;stroke-width:1.4;stroke-miterlimit:4;stroke-dasharray:none;stroke-dashoffset:0;stroke-opacity:1"
         d="m 535.30147,521.78751 c -4.21081,-2.19625 -5.22546,-7.15992 -1.94572,-9.51844 3.12751,-2.24904 12.91257,-3.35584 15.91983,-1.80073 1.56749,0.81058 1.57707,0.8445 1.57707,5.58097 v 4.76541 l -1.46997,-0.76682 c -3.25289,-1.69688 -10.28989,-0.22058 -10.28989,2.15871 0,1.12802 -1.04698,1.0123 -3.79132,-0.4191 z"
         id="path1033" />
      <path
         style="mix-blend-mode:normal;fill:#a0a0a0;stroke:#000000;stroke-width:1.4;stroke-miterlimit:4;stroke-dasharray:none;stroke-dashoffset:0;stroke-opacity:1"
         d="m 533.30726,510.1714 c 0.13216,-0.39645 0.88728,-1.20385 1.67801,-1.79424 1.11644,-0.83352 1.58078,-0.93038 2.07772,-0.43342 1.00182,1.0018 2.01237,0.75547 2.53447,-0.6178 0.50022,-1.31567 2.95294,-1.94945 7.5443,-1.94945 3.10248,0 3.71089,0.41315 3.71089,2.51981 0,1.5816 -0.14465,1.8075 -0.93543,1.46095 -2.9273,-1.28278 -11.0988,-0.67204 -15.95829,1.19272 -0.60524,0.23225 -0.81471,0.11057 -0.65167,-0.37857 z"
         id="path1035" />
      <path
         style="mix-blend-mode:normal;fill:#a0a0a0;stroke:#000000;stroke-width:1.4;stroke-miterlimit:4;stroke-dasharray:none;stroke-dashoffset:0;stroke-opacity:1"
         d="m 659.09822,531.48475 c -0.2094,-3.92266 -0.29536,-7.73064 -0.19106,-8.46219 0.13044,-0.91477 1.16372,-1.99874 3.30938,-3.4717 2.59765,-1.78327 3.5369,-2.13379 5.61266,-2.09466 3.32052,0.0626 6.50198,1.27789 6.50198,2.48365 0,0.58949 -0.40728,0.93826 -1.09562,0.93826 -3.71448,0 -8.23362,5.2655 -11.52019,13.42287 -0.75679,1.8783 -1.56956,3.61781 -1.80621,3.86553 -0.23664,0.24771 -0.60155,-2.75907 -0.81094,-6.68176 z"
         id="path1037" />
      <path
         style="mix-blend-mode:normal;fill:#9cbb9f;fill-opacity:1;stroke:#000000;stroke-width:1.4;stroke-miterlimit:4;stroke-dasharray:none;stroke-dashoffset:0;stroke-opacity:1"
         d="m 678.70654,379.91848 c -2.02338,-2.81937 -2.03264,-2.91774 -0.15814,-1.67724 1.51651,1.00356 1.86801,1.07217 5.42885,1.05965 4.50474,-0.0159 5.69299,-0.46042 5.35077,-2.00205 -0.38893,-1.75217 -4.67452,-10.00953 -7.98874,-15.3925 -4.92252,-7.99526 -7.16331,-10.94034 -12.07548,-15.87108 -11.02426,-11.06589 -23.89331,-18.17998 -38.28532,-21.16442 -8.76054,-1.81666 -12.81348,-1.65164 -17.51343,0.71305 -4.53485,2.28161 -6.72777,4.64188 -7.33123,7.89072 -0.3297,1.77509 0.7865,7.10607 1.62451,7.75856 0.5302,0.41286 0.48422,0.4725 -0.3643,0.4725 -0.8436,0 -1.08881,-0.31017 -1.86764,-2.36236 -2.3086,-6.08317 0.29149,-11.67905 6.92999,-14.91467 3.71607,-1.81123 5.44404,-2.13106 10.24837,-1.89696 13.16924,0.64167 27.97876,6.35532 39.75547,15.33803 3.39686,2.59096 10.54698,9.66989 13.22806,13.09637 3.43847,4.39441 8.49648,12.27312 10.69509,16.65947 2.08579,4.1612 5.46754,11.90617 5.2804,12.09331 -0.0645,0.0644 -2.40938,0.28897 -5.21097,0.49892 -4.23201,0.31716 -5.19081,0.50155 -5.6674,1.08993 -0.54391,0.67151 -0.65159,0.59957 -2.07886,-1.38923 z"
         id="path1039" />
      <path
         style="mix-blend-mode:normal;fill:#122128;fill-opacity:1;stroke:#000000;stroke-width:1.4;stroke-miterlimit:4;stroke-dasharray:none;stroke-dashoffset:0;stroke-opacity:1"
         d="m 670.26144,598.86272 c -0.69861,-0.20103 -1.88924,-0.75919 -2.64584,-1.24036 -1.50762,-0.95883 -5.3645,-4.87273 -5.98593,-6.07444 -0.22212,-0.42955 -0.49525,-5.24407 -0.63254,-11.15031 -0.1329,-5.71688 -0.43503,-14.56579 -0.67138,-19.6642 -0.38886,-8.38756 -0.37068,-9.38411 0.1909,-10.47007 0.9217,-1.78236 0.80195,-3.98809 -0.28671,-5.2819 l -0.90738,-1.07834 1.22541,-3.58087 c 2.64446,-7.7275 6.95558,-15.97122 7.74306,-14.80624 0.11925,0.1764 1.9177,1.2319 3.99656,2.34556 9.97757,5.34493 22.34223,13.31166 30.61607,19.72638 6.33802,4.91384 14.56952,13.19961 17.50555,17.62091 1.28601,1.93659 2.3382,3.75123 2.3382,4.03254 0,0.2813 -3.26252,3.49988 -7.25006,7.15237 l -7.25006,6.64091 -1.02848,-0.84606 c -0.56568,-0.46532 -2.36329,-2.0116 -3.99474,-3.43619 -1.63142,-1.42457 -4.92225,-4.00471 -7.31297,-5.7336 -2.3907,-1.7289 -5.36726,-4.02106 -6.61459,-5.09368 -6.8889,-5.92405 -10.57158,-4.74755 -10.35645,3.30853 0.0473,1.7725 -0.40251,4.73779 -1.47624,9.73093 -1.65354,7.68958 -3.09735,15.62206 -3.09735,17.01744 0,1.31877 -1.47963,1.63621 -4.10503,0.88069 z"
         id="path1041" />
      <path
         style="mix-blend-mode:normal;fill:#a0a0a0;stroke:#000000;stroke-width:1.4;stroke-miterlimit:4;stroke-dasharray:none;stroke-dashoffset:0;stroke-opacity:1"
         d="m 664.79996,608.48877 c -0.41577,-0.0932 -1.5884,-0.4354 -2.6058,-0.76057 l -1.84986,-0.59121 0.24344,-3.97907 c 0.13391,-2.1885 0.24347,-5.50413 0.24347,-7.36809 v -3.389 l 2.47187,2.66986 c 2.99511,3.23501 6.12539,4.98168 8.92778,4.98168 1.00624,0 1.82608,0.0425 1.8219,0.0945 -0.004,0.052 -0.57264,1.86878 -1.26318,4.03733 -0.88551,2.78082 -1.46809,4.02619 -1.97675,4.22566 -0.77597,0.3043 -4.77277,0.35674 -6.01287,0.0789 z"
         id="path1043" />
      <path
         style="mix-blend-mode:normal;fill:#a0a0a0;stroke:#000000;stroke-width:1.4;stroke-miterlimit:4;stroke-dasharray:none;stroke-dashoffset:0;stroke-opacity:1"
         d="m 672.92645,606.95138 c 0,-0.15539 0.52546,-1.85978 1.16769,-3.78751 0.9856,-2.95846 1.34469,-3.59651 2.30298,-4.09205 0.62442,-0.32289 1.22383,-0.49852 1.33207,-0.39031 0.10822,0.10822 -0.16986,1.40385 -0.61798,2.8792 -0.54494,1.79411 -1.26214,3.17762 -2.16578,4.17782 -1.27127,1.40716 -2.01898,1.85632 -2.01898,1.21285 z"
         id="path1047" />
      <path
         style="mix-blend-mode:normal;fill:#a0a0a0;stroke:#000000;stroke-width:1.4;stroke-miterlimit:4;stroke-dasharray:none;stroke-dashoffset:0;stroke-opacity:1"
         d="m 675.1943,597.99129 c 0,-0.76049 2.57011,-14.45617 3.01786,-16.08177 0.25451,-0.92392 0.30647,0.55803 0.1723,4.91368 -0.29168,9.46971 -0.42534,10.35008 -1.68452,11.09388 -1.294,0.7644 -1.50564,0.77483 -1.50564,0.0742 z"
         id="path1049" />
      <path
         style="mix-blend-mode:normal;fill:#35414b;fill-opacity:1;stroke:#000000;stroke-width:1.4;stroke-miterlimit:4;stroke-dasharray:none;stroke-dashoffset:0;stroke-opacity:1"
         d="m 592.03954,705.55381 c 2.01309,-1.6256 2.26785,-1.97258 2.26785,-3.08867 0,-0.63397 -0.28477,-1.69703 -0.6328,-2.36233 -0.34806,-0.66532 -0.67194,-2.02255 -0.71972,-3.01612 -0.10345,-2.14997 -0.8596,-3.43302 -2.52529,-4.2849 -6.25382,-3.19844 -21.4947,-20.4257 -38.56818,-43.59478 -2.68806,-3.64776 -5.0093,-6.71735 -5.15829,-6.82131 -0.14899,-0.10392 -0.99311,-2.74031 -1.87584,-5.85861 -0.88273,-3.1183 -1.83441,-6.27957 -2.1149,-7.02503 -0.72816,-1.93546 -1.25103,-5.09006 -1.87875,-11.33502 -0.62714,-6.23948 -1.16149,-15.84679 -0.88138,-15.84679 0.10364,0 0.74882,0.27956 1.43375,0.62124 1.78554,0.89074 5.83324,1.07304 8.11361,0.36544 1.02973,-0.31956 1.89904,-0.5447 1.9318,-0.50035 0.0328,0.0443 0.16362,2.2275 0.2908,4.85142 l 0.23125,4.77081 -1.54033,0.20661 c -2.63419,0.35333 -6.27091,-0.87614 -8.54842,-2.88993 -0.46693,-0.41286 -0.97118,-0.62844 -1.12056,-0.47906 -0.54256,0.54256 0.58002,1.58621 3.09914,2.88118 2.25362,1.15851 2.91875,1.32292 5.35165,1.32292 1.59877,0 2.77902,0.16047 2.78019,0.37798 0,0.20789 0.25339,3.09941 0.56062,6.42559 0.61675,6.67703 1.14756,9.97916 1.89069,11.76203 l 0.49131,1.17869 5.42623,0.2385 c 11.98128,0.5266 58.31644,0.71628 66.65838,0.27286 13.86642,-0.73705 24.35948,-2.09166 28.0067,-3.61558 1.12157,-0.46861 1.34014,-0.83241 2.20282,-3.66647 1.11273,-3.65548 2.38318,-10.75621 2.72867,-15.25079 l 0.24077,-3.13251 1.55337,0.57433 c 0.85437,0.31586 3.29679,0.66239 5.42764,0.77002 2.13082,0.10763 3.87424,0.2191 3.87424,0.24773 0,0.23151 -8.06985,24.0471 -10.32296,30.46494 -5.32394,15.16491 -7.09999,19.49128 -10.70644,26.08035 -8.17362,14.9333 -12.21073,21.62866 -17.31693,28.71928 -1.56919,2.17903 -2.85308,4.27106 -2.85308,4.64899 0,1.89431 2.26769,4.26755 5.13699,5.3761 1.44121,0.55681 1.38917,0.56576 -2.11317,0.36343 -3.16135,-0.18261 -8.85741,-1.00182 -10.64006,-1.53024 -1.12109,-0.33232 -2.32738,-5.80692 -2.24515,-10.18953 0.12229,-6.5174 -1.78845,-16.94664 -6.57585,-35.89248 -3.37108,-13.34087 -3.26358,-13.04017 -4.66148,-13.04017 -1.57051,0 -2.28111,1.03402 -2.88327,4.19566 -0.97817,5.13556 -1.37374,12.48955 -1.57372,29.25521 -0.2237,18.75367 -0.332,19.58523 -3.10361,23.82822 -2.38072,3.64455 -2.79585,3.90244 -6.697,4.16033 l -3.38622,0.22387 z"
         id="path1051" />
      <path
         style="mix-blend-mode:normal;fill:#35414b;fill-opacity:1;fill-rule:evenodd;stroke:#000000;stroke-width:1.4;stroke-linecap:round;stroke-linejoin:round;stroke-miterlimit:4;stroke-dasharray:none;stroke-dashoffset:0;stroke-opacity:1;paint-order:markers fill stroke"
         d="m 542.6793,525.95385 1.48146,-1.57104"
         id="path1053" />
      <path
         style="mix-blend-mode:normal;fill:#35414b;fill-opacity:1;fill-rule:evenodd;stroke:#000000;stroke-width:1.4;stroke-linecap:round;stroke-linejoin:round;stroke-miterlimit:4;stroke-dasharray:none;stroke-dashoffset:0;stroke-opacity:1;paint-order:markers fill stroke"
         d="m 550.84249,521.97738 -8.16319,3.97647 c 0,0 8.16318,-3.97648 8.16319,-3.97647"
         id="path1055" />
      <path
         style="mix-blend-mode:normal;fill:#35414b;fill-opacity:1;fill-rule:evenodd;stroke:#000000;stroke-width:1.4;stroke-linecap:round;stroke-linejoin:round;stroke-miterlimit:4;stroke-dasharray:none;stroke-dashoffset:0;stroke-opacity:1;paint-order:markers fill stroke"
         d="m 542.6793,525.95385 1.48146,-1.57104"
         id="path1057" />
      <path
         style="mix-blend-mode:normal;fill:#35414b;fill-opacity:1;fill-rule:evenodd;stroke:#000000;stroke-width:1.4;stroke-linecap:round;stroke-linejoin:round;stroke-miterlimit:4;stroke-dasharray:none;stroke-dashoffset:0;stroke-opacity:1;paint-order:markers fill stroke"
         d="m 542.6793,525.95385 1.48146,-1.57104"
         id="path1059" />
      <path
         style="mix-blend-mode:normal;fill:#a0a0a0;stroke:#000000;stroke-width:1.4;stroke-miterlimit:4;stroke-dasharray:none;stroke-dashoffset:0;stroke-opacity:1"
         d="m 541.16612,648.25265 c -0.9856,-0.64928 -2.48118,-2.03917 -3.34089,-3.10475 -1.18301,-1.46629 -2.61514,-3.91819 -3.24329,-5.55268 -0.14396,-0.37462 -0.30985,-0.69961 -0.36862,-0.72215 -0.0588,-0.0225 -1.09474,0.20412 -2.30214,0.50371 -2.07415,0.5147 -2.2004,0.53518 -2.28809,0.37135 -0.051,-0.0954 -0.1075,-0.29967 -0.12546,-0.45403 -0.018,-0.15433 -0.0963,-0.3443 -0.17418,-0.42212 -0.31816,-0.31816 -2.68237,-6.36024 -4.07231,-10.40736 -4.201,-12.23213 -6.49245,-23.05102 -7.10998,-33.569 l -0.0624,-1.06307 h 7.78944 7.78946 l 0.16521,2.29147 c 0.9239,12.81499 3.85437,31.52291 7.84688,50.09367 0.28911,1.34477 0.52565,2.48224 0.52565,2.52772 0,0.15674 -0.15865,0.0808 -1.02926,-0.49276 z"
         id="path1061" />
      <path
         style="mix-blend-mode:normal;fill:#35414b;fill-opacity:1;stroke:#000000;stroke-width:1.4;stroke-miterlimit:4;stroke-dasharray:none;stroke-dashoffset:0;stroke-opacity:1"
         d="m 543.70729,602.90789 c -1.3289,-0.28425 -2.39618,-0.73827 -3.48271,-1.48162 -0.33036,-0.22598 -0.63865,-0.38743 -0.68509,-0.35872 -0.0465,0.0287 -0.0846,-0.0246 -0.0847,-0.11874 -1.8e-4,-0.094 -0.0627,-1.4041 -0.13898,-2.91127 -0.35483,-7.01323 -0.99465,-23.9559 -0.99465,-26.33892 0,-0.71007 -0.37216,-0.73565 -1.16221,-0.0799 -2.05975,1.70961 -3.17915,5.34117 -3.57036,11.58325 -0.11118,1.77411 -0.0598,9.62784 0.0676,10.32348 l 0.0562,0.30711 h -7.79177 -7.79179 l -0.0585,-1.35517 c -0.0628,-1.45415 0.0562,-5.32379 0.21757,-7.07224 0.28387,-3.07641 0.83918,-6.26541 1.51508,-8.70055 0.15579,-0.56124 0.51912,-2.348 0.80743,-3.97061 0.78417,-4.41327 1.48371,-7.5394 2.41523,-10.79317 0.39933,-1.39494 1.56707,-4.95028 1.82337,-5.55154 L 525,556.03494 h 12.1412 c 9.94307,0 12.14123,0.0225 12.14123,0.12369 0,0.068 0.51027,10.12209 1.13392,22.34229 0.62368,12.22021 1.13393,22.44886 1.13393,22.73035 v 0.51181 l -0.87405,0.34499 c -2.43073,0.95936 -4.93766,1.25426 -6.96894,0.81982 z"
         id="path1063" />
      <path
         style="mix-blend-mode:normal;fill:#35414b;fill-opacity:1;stroke:#000000;stroke-width:1.4;stroke-miterlimit:4;stroke-dasharray:none;stroke-dashoffset:0;stroke-opacity:1"
         d="m 537.11633,556.0582 c -6.66538,-0.0132 -12.11887,-0.039 -12.11887,-0.0573 0,-0.0182 0.25009,-0.64534 0.55576,-1.39343 4.68995,-11.47783 11.56007,-19.23412 20.63046,-23.2915 0.9988,-0.44678 1.36612,-0.65686 1.427,-0.81616 0.0451,-0.11798 0.0649,-0.55931 0.0441,-0.98071 -0.029,-0.58666 -0.0975,-0.88797 -0.29226,-1.28601 -0.51348,-1.04954 -1.81158,-1.94786 -3.35158,-2.31939 -0.37415,-0.0903 -0.67871,-0.18539 -0.67683,-0.21137 0.003,-0.0259 0.20357,-0.26723 0.44817,-0.53607 l 0.44477,-0.48882 3.16553,-1.13374 c 1.74106,-0.62354 3.23998,-1.1629 3.33091,-1.19854 0.15576,-0.0611 0.16545,0.14857 0.16653,3.60691 0.003,9.37215 0.43929,16.69177 1.08763,18.24342 l 0.12837,0.30728 -0.43058,0.19048 c -0.5692,0.25177 -1.53231,0.94485 -1.90868,1.37353 -1.31733,1.50034 -1.6234,3.42466 -0.90805,5.70883 0.17793,0.56812 0.24461,1.08472 0.32316,2.5041 0.0544,0.98359 0.0887,1.79152 0.0761,1.79538 -0.0124,0.004 -5.47629,-0.004 -12.14165,-0.0169 z"
         id="path1065" />
      <path
         style="mix-blend-mode:normal;fill:#35414b;fill-opacity:1;stroke:#000000;stroke-width:1.4;stroke-miterlimit:4;stroke-dasharray:none;stroke-dashoffset:0;stroke-opacity:1"
         d="m 801.43037,542.58561 c -1.89579,-4.20412 -7.42498,-9.74899 -11.8508,-11.88442 -1.97559,-0.95321 -5.72285,-2.09812 -8.32725,-2.54423 -4.54634,-0.77875 -4.93168,-0.71739 -9.65819,1.53839 -6.55858,3.1301 -10.29828,3.90612 -18.86601,3.91483 -6.08097,0.006 -15.41055,-1.39473 -17.37538,-2.60906 -0.4296,-0.26551 7.21265,-40.79798 9.46214,-50.18466 l 0.43053,-1.79657 1.66248,1.51918 c 5.17782,4.73144 14.11484,6.26706 25.94272,4.4576 16.54918,-2.53169 22.01867,-1.41896 31.44329,6.39699 8.29805,6.88168 10.42786,9.75609 9.9209,13.38924 -1.07752,7.72176 -10.10412,40.95218 -11.12409,40.95218 -0.13208,0 -0.87921,-1.41727 -1.66034,-3.14947 z"
         id="path1067" />
      <path
         style="mix-blend-mode:normal;fill:#a0a0a0;stroke:#000000;stroke-width:1.4;stroke-miterlimit:4;stroke-dasharray:none;stroke-dashoffset:0;stroke-opacity:1"
         d="m 808.29062,493.04871 c -10.08724,-9.39194 -16.71521,-11.60661 -29.49385,-9.85504 -3.73554,0.51202 -10.36375,0.92442 -14.72938,0.91649 -6.68488,-0.0122 -8.47434,-0.2816 -11.33927,-1.70723 -1.93628,-0.96353 -2.58763,-1.52223 -1.51191,-1.29691 10.05655,2.10654 20.00858,1.84997 30.48812,-0.78605 5.78702,-1.45563 7.08046,-1.4071 13.15225,0.49356 9.61062,3.00844 11.58187,3.90998 14.86157,6.79688 3.59431,3.16386 5.24899,6.28854 4.86712,9.1912 -0.23125,1.75787 -0.63344,1.5181 -6.29465,-3.7529 z"
         id="path1069" />
      <path
         style="mix-blend-mode:normal;fill:#a0a0a0;stroke:#000000;stroke-width:1.4;stroke-miterlimit:4;stroke-dasharray:none;stroke-dashoffset:0;stroke-opacity:1"
         d="m 702.2933,700.77366 c 0,-0.3675 0.0607,-0.51784 0.1348,-0.33409 0.0742,0.18376 0.0742,0.48443 0,0.66818 -0.0741,0.18373 -0.1348,0.0334 -0.1348,-0.33409 z"
         id="path1071" />
      <path
         style="mix-blend-mode:normal;fill:#a0a0a0;stroke:#000000;stroke-width:1.4;stroke-miterlimit:4;stroke-dasharray:none;stroke-dashoffset:0;stroke-opacity:1"
         d="m 698.77783,704.99255 c 0,-0.18891 5.8157,-25.84101 12.92228,-57.00464 10.62601,-46.59714 13.00125,-56.67684 13.37275,-56.74958 0.35288,-0.0691 0.41746,0.0482 0.29507,0.53576 -0.0862,0.34332 -5.49463,25.50533 -12.01883,55.91564 l -11.86217,55.29143 -0.88744,0.92271 c -1.09533,1.13884 -1.82341,1.57395 -1.82166,1.08868 z"
         id="path1073" />
      <path
         style="mix-blend-mode:normal;fill:#35414b;fill-opacity:1;stroke:#000000;stroke-width:1.4;stroke-miterlimit:4;stroke-dasharray:none;stroke-dashoffset:0;stroke-opacity:1"
         d="m 697.87417,705.17326 c -0.0917,-0.23884 -0.16666,-0.77745 -0.16666,-1.19687 0,-0.73425 24.20139,-113.01944 24.40313,-113.22119 0.0858,-0.0858 1.78091,0.40569 2.00419,0.58116 0.0861,0.0676 -25.86492,114.05891 -25.99684,114.19284 -0.0424,0.0431 -0.15217,-0.11708 -0.24382,-0.35594 z"
         id="path1075" />
      <path
         style="mix-blend-mode:normal;fill:#a0a0a0;stroke:#000000;stroke-width:1.4;stroke-miterlimit:4;stroke-dasharray:none;stroke-dashoffset:0;stroke-opacity:1"
         d="m 728.63407,569.23037 c -0.51122,-0.18648 -0.70339,-0.41045 -0.61261,-0.71387 0.0727,-0.24321 1.93781,-8.42658 4.14456,-18.18532 2.20676,-9.75873 4.05202,-17.78285 4.10057,-17.83141 0.0485,-0.0485 0.44302,0.009 0.87662,0.12724 0.53379,0.14592 0.78266,0.38039 0.77068,0.72615 -0.0441,1.27154 -8.02024,36.18878 -8.26233,36.17005 -0.14994,-0.0116 -0.6078,-0.14338 -1.01749,-0.29284 z"
         id="path1077" />
      <path
         style="mix-blend-mode:normal;fill:#35414b;fill-opacity:1;stroke:#000000;stroke-width:1.4;stroke-miterlimit:4;stroke-dasharray:none;stroke-dashoffset:0;stroke-opacity:1"
         d="m 726.9396,567.38212 c -0.18737,-0.41997 0.71149,-4.98768 3.52518,-17.91316 2.07716,-9.54223 3.83781,-17.41062 3.9125,-17.48531 0.0747,-0.0747 0.36954,-0.043 0.65519,0.0704 0.49477,0.19643 0.32903,1.04312 -3.50253,17.89375 -2.21202,9.72814 -4.09318,17.7574 -4.18034,17.84278 -0.0872,0.0854 -0.27165,-0.0984 -0.41,-0.40844 z"
         id="path1079" />
      <path
         style="mix-blend-mode:normal;fill:#151b27;fill-opacity:1;stroke:#000000;stroke-width:1.4;stroke-miterlimit:4;stroke-dasharray:none;stroke-dashoffset:0;stroke-opacity:1"
         d="m 600.86221,703.91408 c 0.68281,-0.91874 1.69508,-2.6326 2.24946,-3.8086 1.75252,-3.71753 1.85311,-4.71321 1.85507,-18.36351 0.003,-21.11679 0.90929,-33.39237 2.63983,-35.75857 0.65275,-0.89252 1.24849,-0.96713 1.73061,-0.2168 0.82521,1.28429 6.1173,22.67879 8.02005,32.42278 1.74294,8.9257 2.43716,15.44873 1.8296,17.1916 -0.23908,0.6858 -0.1373,1.43708 0.59346,4.37975 0.48511,1.9536 0.84952,3.59058 0.80978,3.63773 -0.0397,0.0472 -0.89673,-0.15978 -1.90444,-0.45987 l -1.83222,-0.54568 -0.89403,-6.48909 c -1.08487,-7.87442 -2.42802,-16.64139 -4.7204,-30.81065 -1.99668,-12.34154 -1.96271,-12.16075 -2.28481,-12.16075 -0.14581,0 -0.2722,10.12137 -0.31284,25.0513 l -0.0682,25.05134 -1.11738,0.61634 c -1.01206,0.5583 -6.22687,1.92477 -7.36788,1.93069 -0.36137,0.003 -0.186,-0.37589 0.77433,-1.66801 z"
         id="path1081" />
      <path
         id="path948"
         d="m 595.51913,480.1726 c -15.74088,-5.22724 -28.55838,-12.24402 -41.5604,-22.75173 -14.61,-11.80719 -28.40731,-28.78815 -36.95642,-45.48389 l -1.1276,-2.20207 1.56318,-3.14931 c 4.52403,-9.11445 10.84305,-17.92266 18.03943,-25.14555 18.63423,-18.70281 44.41674,-28.55865 75.05173,-28.68993 6.49997,-0.0279 7.65344,0.13096 14.03141,1.93177 9.95624,2.81112 19.59033,7.29126 28.15434,13.09259 4.80957,3.25803 7.39677,5.38133 11.85913,9.73286 10.20683,9.9532 17.38746,21.89744 21.51044,35.78029 l 0.91146,3.06903 -0.99576,3.02789 c -7.23704,22.00659 -22.11948,39.16045 -43.67522,50.34108 -8.96731,4.65122 -19.34173,8.3103 -29.56684,10.42829 -3.62157,0.75017 -10.06864,1.72146 -11.35894,1.71133 -0.441,-0.003 -3.08697,-0.76518 -5.87994,-1.69265 z"
         style="mix-blend-mode:normal;fill:#000000;stroke:#000000;stroke-width:1.4;stroke-miterlimit:4;stroke-dasharray:none;stroke-dashoffset:0;stroke-opacity:1" />
      <path
         id="path950"
         d="m 583.89292,482.39351 c -15.92038,-1.59602 -31.35128,-8.3475 -45.97038,-20.11333 -9.3768,-7.54674 -19.12199,-18.1973 -26.39332,-28.84546 l -2.11802,-3.10163 0.23987,-1.82218 c 0.46924,-3.56463 2.45266,-10.00033 4.80238,-15.58232 l 1.11815,-2.65634 1.72093,3.26377 c 6.49589,12.31948 15.51331,24.45189 25.87601,34.81459 15.06905,15.06905 32.24115,25.71874 51.91953,32.19915 4.3057,1.41793 4.57076,1.54189 3.60815,1.68736 -1.98874,0.30049 -12.28127,0.40923 -14.8033,0.15639 z"
         style="mix-blend-mode:normal;fill:#98c0ca;fill-opacity:1;stroke:#000000;stroke-width:1.4;stroke-miterlimit:4;stroke-dasharray:none;stroke-dashoffset:0;stroke-opacity:1" />
      <path
         id="path952"
         d="m 507.08737,426.2288 c -0.61206,-1.59105 -1.90252,-11.30938 -1.90252,-14.32769 0,-2.80506 1.82626,-8.27435 3.30354,-9.89338 1.07897,-1.18251 3.32298,-1.84854 3.77327,-1.11993 0.0876,0.14181 0.57351,1.66529 1.07969,3.3855 l 0.92033,3.12764 -0.90684,2.02673 c -2.30431,5.14999 -4.07895,10.0977 -5.2325,14.58839 -0.68837,2.67965 -0.77999,2.87557 -1.03497,2.21274 z"
         style="mix-blend-mode:normal;fill:#98c0ca;fill-opacity:1;stroke:#000000;stroke-width:1.4;stroke-miterlimit:4;stroke-dasharray:none;stroke-dashoffset:0;stroke-opacity:1" />
      <path
         id="path954"
         d="m 535.25263,503.0898 c -4.20645,-3.68728 -12.63748,-12.22187 -15.93604,-16.13177 -13.69377,-16.23166 -21.70612,-32.67221 -24.58315,-50.44231 -1.06992,-6.60842 -0.98467,-17.57458 0.17822,-22.92319 0.22371,-1.02899 0.69475,-3.67839 1.04672,-5.88758 3.24242,-20.35133 11.84918,-39.84295 24.3272,-55.09356 4.74673,-5.80143 12.09923,-12.60361 18.62301,-17.22905 2.41591,-1.71294 9.09505,-5.84608 9.44721,-5.84608 0.0779,0 -0.48228,0.81185 -1.24475,1.80409 -3.4071,4.43373 -4.15288,8.73821 -2.34924,13.55892 0.7811,2.08769 2.82265,5.07023 4.8972,7.15446 2.01967,2.02907 1.92257,2.15781 -1.05352,1.39668 -5.79059,-1.48095 -10.37436,-4.86222 -12.7667,-9.41755 -1.10831,-2.11039 -1.26058,-2.1572 -2.54614,-0.78258 -1.36395,1.45843 -1.22057,3.87683 0.40868,6.89321 1.1753,2.17607 1.68555,2.72582 3.28858,3.54336 0.81656,0.41642 1.46016,1.02904 2.00454,1.90799 0.74517,1.20319 0.80174,1.47545 0.8011,3.85466 0,3.51282 -0.28437,4.16335 -2.4543,5.63361 -2.48549,1.68413 -7.2136,6.28079 -9.88951,9.61464 -5.21526,6.49759 -11.12388,16.40494 -14.46496,24.25425 -0.55642,1.30723 -0.64307,1.38586 -1.36774,1.24092 -2.83059,-0.56613 -5.33132,2.85123 -6.56952,8.97745 -0.3983,1.97072 -0.41735,2.68816 -0.14915,5.61266 0.47075,5.13265 1.31742,10.60214 1.86375,12.04002 0.41162,1.08328 0.45609,1.636 0.27253,3.38645 -0.55055,5.25005 -0.1047,13.25928 1.0777,19.35922 2.31611,11.94882 7.89519,23.77247 15.91651,33.73168 5.47082,6.79249 13.76172,14.21238 21.88805,19.58861 l 2.38091,1.57517 -3.1827,0.1783 c -1.75048,0.0981 -4.00201,0.36867 -5.00338,0.60135 -1.00134,0.2327 -1.84327,0.42307 -1.87092,0.42307 -0.0277,0 -1.37324,-1.1597 -2.99019,-2.5771 z"
         style="mix-blend-mode:normal;fill:#9cbb9f;fill-opacity:1;stroke:#000000;stroke-width:1.4;stroke-miterlimit:4;stroke-dasharray:none;stroke-dashoffset:0;stroke-opacity:1" />
      <path
         id="path956"
         d="m 546.73767,500.47977 c -7.79929,-5.2623 -15.84026,-12.48931 -20.83943,-18.72994 -6.85689,-8.55966 -11.93322,-18.52562 -14.43157,-28.3324 -1.64065,-6.44006 -2.26113,-11.36724 -2.26814,-18.01135 l -0.005,-4.37891 2.47224,3.54463 c 10.6602,15.28429 24.31407,28.39262 38.28256,36.75303 11.62879,6.96005 23.14403,10.68078 36.0312,11.64217 9.61993,0.71765 25.16793,-1.32625 36.75642,-4.83188 27.16374,-8.21732 47.04104,-23.77138 58.20992,-45.54955 2.35389,-4.58983 4.12329,-8.73633 5.339,-12.51175 0.41418,-1.28622 0.82889,-2.3386 0.92154,-2.3386 0.23104,0 1.77978,7.99317 2.27857,11.75986 1.35959,10.26705 0.91829,19.79887 -1.35496,29.26601 -4.18901,17.44551 -13.82384,30.75501 -28.48708,39.35193 l -2.2951,1.34559 -0.9806,-1.98173 c -1.85962,-3.75825 -4.62235,-5.84822 -7.63357,-5.77472 -5.40023,0.13182 -6.92962,0.10287 -9.91441,-0.18764 -1.83748,-0.17883 -8.57269,-0.39005 -14.96711,-0.4694 -15.20053,-0.18862 -24.08672,0.21035 -43.56495,1.95599 -7.36753,0.66027 -8.13249,0.68413 -11.66831,0.36401 -2.1241,-0.1923 -4.77774,-0.26617 -6.04961,-0.1684 -6.50939,0.50035 -10.68525,3.58579 -11.37452,8.40433 -0.0956,0.66828 -0.29745,1.25626 -0.44855,1.30664 -0.1511,0.0503 -1.95514,-1.04219 -4.00891,-2.42792 z"
         style="mix-blend-mode:normal;fill:#a0a0a0;stroke:#000000;stroke-width:1.4;stroke-miterlimit:4;stroke-dasharray:none;stroke-dashoffset:0;stroke-opacity:1" />
      <path
         id="path958"
         d="m 546.58688,499.98394 c -20.15157,-14.05141 -32.62667,-32.19818 -35.96389,-52.31453 -0.9998,-6.02668 -1.61649,-15.91775 -0.94768,-15.19983 0.25619,0.275 2.63205,3.3865 5.27971,6.91446 17.44575,23.24618 39.56253,38.35487 62.65986,42.8049 6.66827,1.28473 18.78537,1.27968 27.52876,-0.0114 38.40123,-5.67079 67.41843,-26.48924 79.44168,-56.99559 1.26447,-3.20836 2.4634,-5.65512 2.66427,-5.43729 0.20087,0.2178 0.81209,2.80146 1.35824,5.74143 1.38475,7.45424 1.39176,23.23185 0.0132,29.65413 -4.18201,19.48222 -13.83456,33.73908 -28.70753,42.40109 l -2.42589,1.41282 -0.97295,-1.80665 c -0.53512,-0.99367 -1.79358,-2.60207 -2.79659,-3.5742 l -1.82362,-1.76755 -9.47737,-0.45739 c -13.04221,-0.62941 -46.60154,-0.0957 -56.78408,0.90313 -4.55695,0.44701 -12.15131,0.82198 -16.8764,0.83328 -9.81143,0.0236 -12.40221,0.61264 -15.14726,3.4448 -0.94745,0.97752 -2.01861,2.77976 -2.38038,4.00497 l -0.65775,2.22768 -3.98428,-2.7782 z"
         style="mix-blend-mode:normal;fill:#a0a0a0;stroke:#000000;stroke-width:1.4;stroke-miterlimit:4;stroke-dasharray:none;stroke-dashoffset:0;stroke-opacity:1" />
      <path
         id="path960"
         d="m 546.59101,500.01005 c -19.96192,-13.72076 -32.61363,-32.13121 -35.9686,-52.34064 -1.045,-6.29475 -1.66216,-15.96157 -0.97218,-15.22732 0.27265,0.29011 2.29727,2.93293 4.49918,5.87287 11.61778,15.51194 25.36225,27.78773 39.41122,35.1999 14.65102,7.72981 28.46692,10.73013 43.60471,9.46941 22.14991,-1.8447 41.54178,-8.61631 57.94534,-20.23438 6.36206,-4.50601 15.30263,-13.40278 19.62994,-19.53376 3.59757,-5.09707 8.93305,-15.19095 10.86895,-20.56228 0.66736,-1.85171 1.38875,-3.17468 1.60306,-2.93997 0.90646,0.99277 2.24131,10.62852 2.50277,18.06654 0.88173,25.08253 -9.03195,46.16892 -27.39001,58.25866 -2.53815,1.67151 -4.67415,2.95802 -4.74668,2.85896 -0.0725,-0.0991 -0.63785,-1.02206 -1.25632,-2.05105 -0.61843,-1.02897 -1.87021,-2.58435 -2.78167,-3.45634 l -1.65719,-1.58546 -9.47192,-0.45992 c -12.80708,-0.62185 -46.52185,-0.078 -56.77863,0.91598 -4.55695,0.44159 -11.9674,0.81214 -16.46764,0.82344 -4.50028,0.0114 -9.2369,0.28609 -10.52587,0.61066 -3.31541,0.83484 -6.50595,3.72631 -7.36589,6.67549 l -0.69416,2.38064 z"
         style="mix-blend-mode:normal;fill:#000000;fill-opacity:0;stroke:#000000;stroke-width:1.4;stroke-miterlimit:4;stroke-dasharray:none;stroke-dashoffset:0;stroke-opacity:1" />
      <path
         id="path962"
         d="m 546.59101,500.01005 c -19.96192,-13.72076 -32.61363,-32.13121 -35.9686,-52.34064 -1.045,-6.29475 -1.66216,-15.96157 -0.97218,-15.22732 0.27265,0.29011 2.29727,2.93293 4.49918,5.87287 11.61778,15.51194 25.36225,27.78773 39.41122,35.1999 14.65102,7.72981 28.46692,10.73013 43.60471,9.46941 22.14991,-1.8447 41.54178,-8.61631 57.94534,-20.23438 6.36206,-4.50601 15.30263,-13.40278 19.62994,-19.53376 3.59757,-5.09707 8.93305,-15.19095 10.86895,-20.56228 0.66736,-1.85171 1.38875,-3.17468 1.60306,-2.93997 0.90646,0.99277 2.24131,10.62852 2.50277,18.06654 0.88173,25.08253 -9.03195,46.16892 -27.39001,58.25866 -2.53815,1.67151 -4.67415,2.95802 -4.74668,2.85896 -0.0725,-0.0991 -0.63785,-1.02206 -1.25632,-2.05105 -0.61843,-1.02897 -1.87021,-2.58435 -2.78167,-3.45634 l -1.65719,-1.58546 -9.47192,-0.45992 c -12.80708,-0.62185 -46.52185,-0.078 -56.77863,0.91598 -4.55695,0.44159 -11.9674,0.81214 -16.46764,0.82344 -4.50028,0.0114 -9.2369,0.28609 -10.52587,0.61066 -3.31541,0.83484 -6.50595,3.72631 -7.36589,6.67549 l -0.69416,2.38064 z"
         style="mix-blend-mode:normal;fill:#000000;fill-opacity:0;stroke:#000000;stroke-width:1.4;stroke-miterlimit:4;stroke-dasharray:none;stroke-dashoffset:0;stroke-opacity:1" />
      <path
         id="path966"
         d="m 546.59101,500.01005 c -19.96192,-13.72076 -32.61363,-32.13121 -35.9686,-52.34064 -1.045,-6.29475 -1.66216,-15.96157 -0.97218,-15.22732 0.27265,0.29011 2.29727,2.93293 4.49918,5.87287 11.61778,15.51194 25.36225,27.78773 39.41122,35.1999 14.65102,7.72981 28.46692,10.73013 43.60471,9.46941 22.14991,-1.8447 41.54178,-8.61631 57.94534,-20.23438 6.36206,-4.50601 15.30263,-13.40278 19.62994,-19.53376 3.59757,-5.09707 8.93305,-15.19095 10.86895,-20.56228 0.66736,-1.85171 1.38875,-3.17468 1.60306,-2.93997 0.90646,0.99277 2.24131,10.62852 2.50277,18.06654 0.88173,25.08253 -9.03195,46.16892 -27.39001,58.25866 -2.53815,1.67151 -4.67415,2.95802 -4.74668,2.85896 -0.0725,-0.0991 -0.63785,-1.02206 -1.25632,-2.05105 -0.61843,-1.02897 -1.87021,-2.58435 -2.78167,-3.45634 l -1.65719,-1.58546 -9.47192,-0.45992 c -12.80708,-0.62185 -46.52185,-0.078 -56.77863,0.91598 -4.55695,0.44159 -11.9674,0.81214 -16.46764,0.82344 -4.50028,0.0114 -9.2369,0.28609 -10.52587,0.61066 -3.31541,0.83484 -6.50595,3.72631 -7.36589,6.67549 l -0.69416,2.38064 z"
         style="mix-blend-mode:normal;fill:#000000;stroke:#000000;stroke-width:1.4;stroke-miterlimit:4;stroke-dasharray:none;stroke-dashoffset:0;stroke-opacity:1" />
      <path
         id="path968"
         d="m 722.07847,589.51272 c -0.95309,-0.46985 -3.64133,-2.50616 -5.97387,-4.52512 l -4.24101,-3.67082 3.30118,-3.08147 c 1.81563,-1.69482 3.9134,-3.61765 4.66172,-4.273 l 1.36054,-1.19152 5.05391,1.79271 c 4.10192,1.45499 5.28048,2.12256 6.25663,3.54391 2.53424,3.69001 0.80833,8.64663 -3.81248,10.9493 -3.11097,1.55025 -4.23027,1.62751 -6.60662,0.45601 z"
         style="mix-blend-mode:normal;fill:#000000;stroke:#000000;stroke-width:1.4;stroke-miterlimit:4;stroke-dasharray:none;stroke-dashoffset:0;stroke-opacity:1" />
      <path
         id="path970"
         d="m 535.25017,648.66442 c -1.00266,-1.17141 -2.49462,-3.36372 -3.31541,-4.87182 -1.21148,-2.22586 -1.35409,-2.82959 -0.75766,-3.20739 1.51908,-0.96221 2.59447,-0.46093 3.7125,1.73056 0.62074,1.21674 2.27502,3.3587 3.6762,4.75986 l 2.54756,2.54759 -1.28505,0.5855 c -2.03356,0.92657 -2.63755,0.72281 -4.57814,-1.5443 z"
         style="mix-blend-mode:normal;fill:#000000;stroke:#000000;stroke-width:1.4;stroke-miterlimit:4;stroke-dasharray:none;stroke-dashoffset:0;stroke-opacity:1" />
      <path
         id="path972"
         style="mix-blend-mode:normal;fill:#ffff5a;fill-opacity:1;fill-rule:evenodd;stroke:#000000;stroke-width:1.4;stroke-linecap:round;stroke-linejoin:round;stroke-miterlimit:4;stroke-dasharray:none;stroke-dashoffset:0;stroke-opacity:1;paint-order:markers fill stroke"
         d="m 591.02449,528.96486 -6.32263,-2.64782 -5.76561,3.70734 0.56443,-6.83141 -5.30757,-4.33779 6.67147,-1.57421 2.48536,-6.38825 3.55877,5.85849 6.8436,0.38964 -4.47204,5.19496 z" />
      <path
         style="mix-blend-mode:normal;fill:#ffff68;fill-opacity:1;fill-rule:evenodd;stroke:#000000;stroke-width:1.4;stroke-linecap:round;stroke-linejoin:round;stroke-miterlimit:4;stroke-dasharray:none;stroke-dashoffset:0;stroke-opacity:1;paint-order:markers fill stroke"
         id="path974"
         d="m 616.68239,516.13591 -6.32263,-2.64782 -5.76562,3.70734 0.56443,-6.83141 -5.30756,-4.33779 6.67147,-1.57421 2.48536,-6.38825 3.55877,5.85849 6.8436,0.38964 -4.47204,5.19496 z" />
      <path
         id="path976"
         style="mix-blend-mode:normal;fill:#fffd26;fill-opacity:1;fill-rule:evenodd;stroke:#000000;stroke-width:1.4;stroke-linecap:round;stroke-linejoin:round;stroke-miterlimit:4;stroke-dasharray:none;stroke-dashoffset:0;stroke-opacity:1;paint-order:markers fill stroke"
         d="m 644.47841,530.03395 -6.32263,-2.64782 -5.76562,3.70734 0.56444,-6.8314 -5.30757,-4.3378 6.67147,-1.57421 2.48536,-6.38825 3.55877,5.85849 6.8436,0.38964 -4.47204,5.19496 z" />
    </g>
  </g>
</svg>
